<svg xmlns="http://www.w3.org/2000/svg" xmlns:xlink="http://www.w3.org/1999/xlink" width="1080" zoomAndPan="magnify" viewBox="0 0 810 809.999993" height="1080" preserveAspectRatio="xMidYMid meet" version="1.0"><defs><clipPath id="8a9262ff7c"><path d="M 371.460938 371.460938 L 438.210938 371.460938 L 438.210938 438.210938 L 371.460938 438.210938 Z M 371.460938 371.460938 " clip-rule="nonzero"/></clipPath></defs><g clip-path="url(#8a9262ff7c)"><path fill="#ffffff" d="M 438.542969 405 C 438.542969 406.097656 438.488281 407.195312 438.378906 408.289062 C 438.273438 409.382812 438.113281 410.464844 437.898438 411.542969 C 437.683594 412.621094 437.417969 413.683594 437.097656 414.734375 C 436.777344 415.789062 436.410156 416.820312 435.988281 417.835938 C 435.566406 418.851562 435.097656 419.84375 434.582031 420.8125 C 434.0625 421.78125 433.5 422.71875 432.890625 423.632812 C 432.277344 424.546875 431.625 425.429688 430.929688 426.277344 C 430.230469 427.125 429.496094 427.941406 428.71875 428.714844 C 427.941406 429.492188 427.128906 430.230469 426.28125 430.925781 C 425.429688 431.625 424.550781 432.277344 423.636719 432.886719 C 422.722656 433.496094 421.78125 434.0625 420.8125 434.578125 C 419.84375 435.097656 418.851562 435.566406 417.835938 435.988281 C 416.824219 436.40625 415.789062 436.777344 414.738281 437.09375 C 413.6875 437.414062 412.621094 437.679688 411.546875 437.894531 C 410.46875 438.109375 409.382812 438.269531 408.289062 438.378906 C 407.195312 438.484375 406.101562 438.539062 405.003906 438.539062 C 403.902344 438.539062 402.808594 438.484375 401.714844 438.378906 C 400.621094 438.269531 399.535156 438.109375 398.460938 437.894531 C 397.382812 437.679688 396.316406 437.414062 395.265625 437.09375 C 394.214844 436.777344 393.183594 436.40625 392.167969 435.988281 C 391.152344 435.566406 390.160156 435.097656 389.191406 434.578125 C 388.222656 434.0625 387.28125 433.496094 386.367188 432.886719 C 385.457031 432.277344 384.574219 431.625 383.726562 430.925781 C 382.875 430.230469 382.0625 429.492188 381.285156 428.714844 C 380.507812 427.941406 379.773438 427.125 379.074219 426.277344 C 378.378906 425.429688 377.726562 424.546875 377.117188 423.632812 C 376.503906 422.71875 375.941406 421.78125 375.421875 420.8125 C 374.90625 419.84375 374.4375 418.851562 374.015625 417.835938 C 373.59375 416.820312 373.226562 415.789062 372.90625 414.734375 C 372.589844 413.683594 372.320312 412.621094 372.109375 411.542969 C 371.894531 410.464844 371.730469 409.382812 371.625 408.289062 C 371.515625 407.195312 371.464844 406.097656 371.464844 405 C 371.464844 403.902344 371.515625 402.804688 371.625 401.710938 C 371.730469 400.621094 371.894531 399.535156 372.109375 398.457031 C 372.320312 397.378906 372.589844 396.316406 372.90625 395.265625 C 373.226562 394.214844 373.59375 393.179688 374.015625 392.164062 C 374.4375 391.152344 374.90625 390.160156 375.421875 389.191406 C 375.941406 388.222656 376.503906 387.28125 377.117188 386.367188 C 377.726562 385.453125 378.378906 384.574219 379.074219 383.722656 C 379.773438 382.875 380.507812 382.0625 381.285156 381.285156 C 382.0625 380.507812 382.875 379.769531 383.726562 379.074219 C 384.574219 378.378906 385.457031 377.722656 386.367188 377.113281 C 387.28125 376.503906 388.222656 375.9375 389.191406 375.421875 C 390.160156 374.902344 391.152344 374.433594 392.167969 374.015625 C 393.183594 373.59375 394.214844 373.222656 395.265625 372.90625 C 396.316406 372.585938 397.382812 372.320312 398.460938 372.105469 C 399.535156 371.890625 400.621094 371.730469 401.714844 371.621094 C 402.808594 371.515625 403.902344 371.460938 405.003906 371.460938 C 406.101562 371.460938 407.195312 371.515625 408.289062 371.621094 C 409.382812 371.730469 410.46875 371.890625 411.546875 372.105469 C 412.621094 372.320312 413.6875 372.585938 414.738281 372.90625 C 415.789062 373.222656 416.824219 373.59375 417.835938 374.015625 C 418.851562 374.433594 419.84375 374.902344 420.8125 375.421875 C 421.78125 375.9375 422.722656 376.503906 423.636719 377.113281 C 424.550781 377.722656 425.429688 378.378906 426.28125 379.074219 C 427.128906 379.769531 427.941406 380.507812 428.71875 381.285156 C 429.496094 382.0625 430.230469 382.875 430.929688 383.722656 C 431.625 384.574219 432.277344 385.453125 432.890625 386.367188 C 433.5 387.28125 434.0625 388.222656 434.582031 389.191406 C 435.097656 390.160156 435.566406 391.152344 435.988281 392.164062 C 436.410156 393.179688 436.777344 394.214844 437.097656 395.265625 C 437.417969 396.316406 437.683594 397.378906 437.898438 398.457031 C 438.113281 399.535156 438.273438 400.621094 438.378906 401.710938 C 438.488281 402.804688 438.542969 403.902344 438.542969 405 Z M 438.542969 405 " fill-opacity="1" fill-rule="nonzero"/></g><path fill="#0f1418" d="M 413.421875 406.726562 L 414.371094 399.371094 L 407.089844 399.371094 L 407.089844 394.679688 C 407.089844 392.550781 407.683594 391.097656 410.734375 391.097656 L 414.625 391.097656 L 414.625 384.519531 C 413.953125 384.429688 411.644531 384.230469 408.953125 384.230469 C 403.335938 384.230469 399.496094 387.65625 399.496094 393.949219 L 399.496094 399.371094 L 393.148438 399.371094 L 393.148438 406.726562 L 399.496094 406.726562 L 399.496094 425.589844 L 407.089844 425.589844 L 407.089844 406.726562 Z M 413.421875 406.726562 " fill-opacity="1" fill-rule="nonzero"/></svg>