<svg xmlns="http://www.w3.org/2000/svg" xmlns:xlink="http://www.w3.org/1999/xlink" width="1080" zoomAndPan="magnify" viewBox="0 0 810 809.999993" height="1080" preserveAspectRatio="xMidYMid meet" version="1.0"><defs><clipPath id="31772f8c27"><path d="M 375.402344 375.402344 L 434.652344 375.402344 L 434.652344 434.652344 L 375.402344 434.652344 Z M 375.402344 375.402344 " clip-rule="nonzero"/></clipPath><clipPath id="74d84f44ff"><path d="M 371.398438 371.398438 L 438.898438 371.398438 L 438.898438 438.898438 L 371.398438 438.898438 Z M 371.398438 371.398438 " clip-rule="nonzero"/></clipPath></defs><path fill="#ffffff" d="M 406.621094 386.972656 C 397.570312 386.972656 390.214844 394.328125 390.214844 403.378906 C 390.214844 406.34375 391.011719 409.214844 392.507812 411.730469 L 390.289062 419.734375 L 398.691406 417.738281 C 401.109375 419.085938 403.828125 419.785156 406.621094 419.785156 C 415.671875 419.785156 423.027344 412.429688 423.027344 403.378906 C 423.027344 394.328125 415.671875 386.972656 406.621094 386.972656 Z M 406.621094 417.09375 C 404.125 417.09375 401.707031 416.417969 399.589844 415.171875 L 399.113281 414.898438 L 394.101562 416.070312 L 395.425781 411.308594 L 395.101562 410.808594 C 393.679688 408.613281 392.929688 406.023438 392.929688 403.378906 C 392.929688 395.824219 399.089844 389.664062 406.644531 389.664062 C 414.199219 389.664062 420.359375 395.824219 420.359375 403.378906 C 420.332031 410.957031 414.175781 417.09375 406.621094 417.09375 Z M 406.621094 417.09375 " fill-opacity="1" fill-rule="nonzero"/><path fill="#ffffff" d="M 414.425781 409.289062 C 414.300781 409.960938 412.851562 410.808594 411.929688 411.058594 C 409.636719 411.65625 406.421875 409.910156 403.230469 407.144531 C 400.011719 404.351562 397.84375 401.410156 398.144531 399.066406 C 398.242188 398.144531 398.914062 396.570312 399.5625 396.371094 C 400.1875 396.171875 400.636719 396.347656 401.285156 396.570312 C 401.609375 396.921875 402.007812 397.371094 402.457031 397.867188 C 403.054688 398.542969 403.453125 399.164062 403.726562 399.589844 C 403.925781 399.9375 403.851562 400.386719 403.554688 400.660156 L 402.457031 401.632812 C 402.257812 401.808594 402.183594 402.105469 402.304688 402.332031 C 402.65625 403.054688 403.453125 404.550781 404.625 405.574219 C 405.796875 406.59375 407.394531 407.167969 408.140625 407.417969 C 408.390625 407.492188 408.664062 407.394531 408.8125 407.167969 L 409.636719 405.945312 C 409.859375 405.621094 410.308594 405.472656 410.683594 405.621094 C 411.132812 405.820312 411.804688 406.121094 412.554688 406.621094 C 413.128906 406.992188 413.601562 407.34375 414 407.617188 C 414.300781 408.214844 414.546875 408.640625 414.425781 409.289062 Z M 414.425781 409.289062 " fill-opacity="1" fill-rule="nonzero"/><g clip-path="url(#31772f8c27)"><path fill="#ffffff" d="M 405 434.59375 C 388.691406 434.59375 375.402344 421.332031 375.402344 405 C 375.402344 388.691406 388.691406 375.402344 405 375.402344 C 421.304688 375.402344 434.59375 388.691406 434.59375 405 C 434.59375 421.332031 421.332031 434.59375 405 434.59375 Z M 405 377.023438 C 389.566406 377.023438 377.023438 389.566406 377.023438 405 C 377.023438 420.433594 389.566406 432.972656 405 432.972656 C 420.433594 432.972656 432.972656 420.433594 432.972656 405 C 432.972656 389.566406 420.433594 377.023438 405 377.023438 Z M 405 377.023438 " fill-opacity="1" fill-rule="nonzero"/></g><path fill="#fafbfc" d="M 404.996094 397.546875 C 400.894531 397.546875 397.546875 400.894531 397.546875 404.996094 C 397.546875 409.097656 400.894531 412.441406 404.996094 412.441406 C 409.097656 412.441406 412.441406 409.097656 412.441406 404.996094 C 412.441406 400.894531 409.097656 397.546875 404.996094 397.546875 Z M 404.996094 397.546875 " fill-opacity="1" fill-rule="nonzero"/><path fill="#fafbfc" d="M 415 386.726562 L 394.988281 386.726562 C 390.449219 386.726562 386.726562 390.421875 386.726562 394.988281 L 386.726562 415 C 386.726562 419.539062 390.421875 423.261719 394.988281 423.261719 L 415 423.261719 C 419.539062 423.261719 423.261719 419.570312 423.261719 415 L 423.261719 394.988281 C 423.234375 390.421875 419.539062 386.726562 415 386.726562 Z M 404.996094 416.195312 C 398.800781 416.195312 393.765625 411.160156 393.765625 404.964844 C 393.765625 398.769531 398.800781 393.738281 404.996094 393.738281 C 411.191406 393.738281 416.222656 398.769531 416.222656 404.964844 C 416.195312 411.160156 411.160156 416.195312 404.996094 416.195312 Z M 417.007812 395.628906 C 415.523438 395.628906 414.304688 394.40625 414.304688 392.921875 C 414.304688 391.441406 415.523438 390.21875 417.007812 390.21875 C 418.492188 390.21875 419.714844 391.441406 419.714844 392.921875 C 419.714844 394.4375 418.519531 395.628906 417.007812 395.628906 Z M 417.007812 395.628906 " fill-opacity="1" fill-rule="nonzero"/><g clip-path="url(#74d84f44ff)"><path fill="#fafbfc" d="M 404.996094 371.398438 C 386.4375 371.398438 371.398438 386.4375 371.398438 404.996094 C 371.398438 423.554688 386.4375 438.59375 404.996094 438.59375 C 423.554688 438.59375 438.59375 423.554688 438.59375 404.996094 C 438.5625 386.4375 423.523438 371.398438 404.996094 371.398438 Z M 427.015625 415 C 427.015625 421.632812 421.605469 427.042969 414.972656 427.042969 L 394.988281 427.042969 C 388.355469 427.042969 382.945312 421.632812 382.945312 415 L 382.945312 394.988281 C 382.945312 388.355469 388.355469 382.945312 394.988281 382.945312 L 415 382.945312 C 421.632812 382.945312 427.042969 388.355469 427.042969 394.988281 L 427.042969 415 Z M 427.015625 415 " fill-opacity="1" fill-rule="nonzero"/></g></svg>