<svg xmlns="http://www.w3.org/2000/svg" xmlns:xlink="http://www.w3.org/1999/xlink" zoomAndPan="magnify" viewBox="0 0 810 809.999993" height="1080" preserveAspectRatio="xMidYMid meet" version="1.0"><defs><clipPath id="75dc97873d"><path d="M 370.863281 370.863281 L 439.113281 370.863281 L 439.113281 439.113281 L 370.863281 439.113281 Z M 370.863281 370.863281 " clip-rule="nonzero"/></clipPath><clipPath id="0de730f025"><path d="M 370.863281 402.363281 L 370.863281 407.636719 C 370.863281 425.035156 384.964844 439.136719 402.363281 439.136719 L 407.636719 439.136719 C 425.035156 439.136719 439.136719 425.035156 439.136719 407.636719 L 439.136719 402.363281 C 439.136719 384.964844 425.035156 370.863281 407.636719 370.863281 L 402.363281 370.863281 C 384.964844 370.863281 370.863281 384.964844 370.863281 402.363281 Z M 370.863281 402.363281 " clip-rule="nonzero"/></clipPath></defs><g clip-path="url(#75dc97873d)"><g clip-path="url(#0de730f025)"><path fill="#fafbfc" d="M 433.433594 370.863281 L 376.601562 370.863281 C 373.457031 370.863281 370.929688 373.421875 370.929688 376.53125 L 370.929688 433.464844 C 370.929688 436.609375 373.492188 439.136719 376.601562 439.136719 L 433.398438 439.136719 C 436.539062 439.136719 439.066406 436.574219 439.066406 433.464844 L 439.066406 376.53125 C 439.101562 373.421875 436.574219 370.863281 433.433594 370.863281 Z M 391.117188 427.183594 L 381.039062 427.183594 L 381.039062 396.921875 L 391.117188 396.921875 Z M 386.0625 393.265625 C 382.882812 393.265625 380.324219 390.707031 380.324219 387.527344 C 380.324219 384.351562 382.882812 381.792969 386.0625 381.792969 C 389.238281 381.792969 391.796875 384.351562 391.796875 387.527344 C 391.796875 390.707031 389.238281 393.265625 386.0625 393.265625 Z M 429.027344 427.183594 L 418.917969 427.183594 L 418.675781 409.21875 C 418.675781 409.21875 418.917969 404.433594 413.691406 404.46875 C 408.464844 404.503906 407.75 409.21875 407.75 409.21875 L 407.75 427.183594 L 397.570312 427.183594 L 397.570312 396.921875 L 407.339844 396.921875 L 407.339844 401.089844 C 407.339844 401.089844 407.75 399.722656 410.003906 398.117188 C 412.257812 396.511719 415.980469 396.171875 417.585938 396.238281 C 419.191406 396.308594 421.375 396.035156 425.03125 398.5625 C 428.957031 401.257812 429.058594 408.328125 429.058594 408.328125 Z M 429.027344 427.183594 " fill-opacity="1" fill-rule="nonzero"/></g></g></svg>